# xmcd
#
# Track frame offsets: 
#        150
#        25077
#        43010
#        53085
#        65207
#        82435
#        105682
#        116520
#        130512
#        150762
#
# Disc length: 2209 seconds
#
# Revision: 5
# Processed by: cddbd v1.5.2PL0 Copyright (c) Steve Scherf et al.
# Submitted via: ExactAudioCopyFreeDBPlugin 1.0
#
DISCID=7e089f0a
DTITLE=Various Artist - Blues 88's:  Boogie Woogie Piano Instrumental
DTITLE=s (Rounder EasyDisc)
DYEAR=1998
DGENRE=Blues
TTITLE0=Honey Alexander - Buzzin'
TTITLE1=David Maxwell - Walk the Walk
TTITLE2=Al Copley - My Bonnie Rocks
TTITLE3=Katie Webster - C. Q. Boogie
TTITLE4=Davell Crawford - Keep It Rollin'! (solo)
TTITLE5=Roomful of Blues - Albi's Boogie
TTITLE6=Deanna Bogart - Backstage Boogie
TTITLE7=Preacher Jack - Yancey's Bugle Call (solo)
TTITLE8=Jay McShann - Honky Tonk Train
TTITLE9=James Booker - Three Keys (solo)
EXTD=LABEL =Rounder Records Corp.\nID =edcd7060\nUPC =712136-7060-2
EXTD=1\nCOPYRIGHT =1998\n*****\nThe title no the cd jewel box spine i
EXTD=s "Blues 88's: Boogie Woogie Instrumentals", but the titel on the
EXTD=jewel box front and on the cd itself is "Blues 88's: Boogie Woog
EXTD=ie Piano Instrumentals" - so i used the version on the cd.\n*****
EXTD=\nYear: 1998
EXTT0=
EXTT1=
EXTT2=
EXTT3=
EXTT4=
EXTT5=
EXTT6=
EXTT7=
EXTT8=
EXTT9=
PLAYORDER=
